<?xml version="1.0"?>
<svg version="1.1" xmlns="http://www.w3.org/2000/svg" width="400px" height="200px" style="border: dashed 2px #aaa"><path fill="#ffffff" d="M50.8935546875,94.6240234375q0-1.025390625,0.3515625-1.376953125t0.9814453125-0.3515625q0.17578125,0,0.37353515625,0.029296875t0.37353515625,0.087890625q0.9814453125-0.1904296875,1.8603515625-0.1904296875q1.4208984375,0,2.578125,0.498046875q1.8603515625,0.791015625,3.076171875,2.34375t1.787109375,3.6474609375t0.5712890625,4.2919921875q0,1.23046875-0.16845703125,2.5634765625t-0.65185546875,2.4755859375q-0.4248046875,1.025390625-1.171875,2.14599609375t-1.69189453125,2.1240234375t-2.0361328125,1.7578125t-2.20458984375,1.01806640625l0,0.1171875q0,0.29296875-0.15380859375,0.47607421875t-0.37353515625,0.2783203125t-0.50537109375,0.12451171875t-0.53466796875,0.029296875q-0.146484375,0-0.41748046875-0.029296875t-0.52734375-0.10986328125t-0.43212890625-0.21240234375t-0.17578125-0.3662109375q0-2.666015625-0.13916015625-5.33935546875t-0.31494140625-5.3466796875t-0.31494140625-5.33935546875t-0.13916015625-5.3466796875z M53.662109375,93.876953125q0.146484375,1.40625,0.1904296875,2.80517578125t0.1318359375,2.80517578125q0.234375,3.6328125,0.5419921875,7.22900390625t0.3662109375,7.22900390625q1.40625-0.9228515625,2.40966796875-2.109375t1.64794921875-2.578125t0.94482421875-2.92236328125t0.30029296875-3.15673828125q0-1.171875-0.205078125-2.578125t-0.703125-2.7099609375t-1.34033203125-2.3583984375t-2.10205078125-1.5087890625q-0.263671875-0.087890625-0.63720703125-0.146484375t-1.19384765625-0.05859375q-0.087890625,0-0.17578125,0.029296875t-0.17578125,0.029296875z M65.830126953125,109.1845703125q0-1.34765625,0.31494140625-2.64404296875t0.53466796875-2.58544921875q0.05859375-0.3369140625,0.46142578125-0.41748046875t0.68115234375-0.08056640625q0.4833984375,0,0.7763671875,0.146484375q0.1171875,0.05859375,0.2197265625,0.1318359375t0.1025390625,0.1904296875q0,1.259765625-0.30029296875,2.4609375t-0.30029296875,2.548828125q0,0.4541015625,0.06591796875,0.85693359375t0.12451171875,0.79833984375l0.087890625,0.4248046875q0,0.1171875,0.0146484375,0.205078125t0.0439453125,0.205078125q0,0.263671875-0.37353515625,0.35888671875t-0.65185546875,0.09521484375q-0.4248046875,0-0.78369140625-0.16845703125t-0.56396484375-0.57861328125l-0.205078125-0.4248046875q-0.17578125-0.3369140625-0.17578125-0.75439453125t-0.0732421875-0.76904296875z M66.767626953125,100.3662109375l0-0.2783203125q0-0.6884765625,0.34423828125-1.23046875t1.03271484375-0.5419921875q0.087890625,0,0.16845703125,0.0146484375t0.16845703125,0.0146484375q0.17578125,0.029296875,0.46142578125,0.13916015625t0.28564453125,0.34423828125l0,0.029296875q-0.05859375,0.1171875-0.0732421875,0.24169921875t-0.0732421875,0.21240234375l0.029296875-0.029296875q-0.17578125,0.4541015625-0.28564453125,0.732421875t-0.24169921875,0.44677734375t-0.32958984375,0.24169921875t-0.56396484375,0.0732421875q-0.05859375,0-0.205078125-0.0146484375t-0.31494140625-0.05859375t-0.28564453125-0.1171875t-0.1171875-0.2197265625z M72.22666015625,109.0234375q0-0.8056640625,0.15380859375-1.72119140625t0.52734375-1.67724609375t1.03271484375-1.259765625t1.6845703125-0.498046875q0.6884765625,0,1.3330078125,0.22705078125t1.2158203125,0.62255859375q0.17578125-0.29296875,0.556640625-0.35888671875t0.673828125-0.06591796875q0.1171875,0,0.32958984375,0.0146484375t0.41748046875,0.087890625t0.35888671875,0.17578125t0.18310546875,0.29296875q0.1171875,1.025390625,0.1611328125,2.04345703125t0.1318359375,2.02880859375q0.146484375,1.8896484375,0.4541015625,3.7353515625t0.3076171875,3.7353515625q0,0.8935546875-0.08056640625,1.93359375t-0.4248046875,1.92626953125t-1.00341796875,1.47216796875t-1.8310546875,0.5859375q-1.0546875,0-1.61865234375-0.37353515625t-1.01806640625-1.25244140625q0.029296875-0.29296875,0.37353515625-0.38818359375t0.59326171875-0.09521484375q0.234375,0,0.47607421875,0.0439453125t0.38818359375,0.146484375l0.3662109375,0.234375q0.5419921875-1.11328125,0.6591796875-2.431640625t0.1171875-2.548828125q0-1.025390625-0.1025390625-2.02880859375t-0.205078125-2.01416015625q-1.025390625,1.8603515625-3.1201171875,1.8603515625q-0.966796875,0-1.57470703125-0.41015625t-0.9375-1.0400390625t-0.4541015625-1.4208984375t-0.12451171875-1.58203125z M74.02841796875,109.1552734375q0,0.3662109375,0.029296875,0.94482421875t0.15380859375,1.13525390625t0.35888671875,0.95947265625t0.6591796875,0.40283203125q0.8056640625,0,1.2744140625-0.6298828125t0.73974609375-1.50146484375t0.43212890625-1.8017578125t0.41015625-1.53076171875q-0.029296875-0.205078125-0.029296875-0.40283203125l0-0.40283203125q-0.3369140625-0.6298828125-0.9814453125-1.09130859375t-1.3330078125-0.62255859375q-0.087890625-0.0146484375-0.1611328125-0.0146484375q-0.41015625,0-0.673828125,0.4833984375q-0.3369140625,0.5859375-0.52734375,1.39892578125t-0.27099609375,1.60400390625t-0.08056640625,1.0693359375z M84.746240234375,109.1845703125q0-1.34765625,0.31494140625-2.64404296875t0.53466796875-2.58544921875q0.05859375-0.3369140625,0.46142578125-0.41748046875t0.68115234375-0.08056640625q0.4833984375,0,0.7763671875,0.146484375q0.1171875,0.05859375,0.2197265625,0.1318359375t0.1025390625,0.1904296875q0,1.259765625-0.30029296875,2.4609375t-0.30029296875,2.548828125q0,0.4541015625,0.06591796875,0.85693359375t0.12451171875,0.79833984375l0.087890625,0.4248046875q0,0.1171875,0.0146484375,0.205078125t0.0439453125,0.205078125q0,0.263671875-0.37353515625,0.35888671875t-0.65185546875,0.09521484375q-0.4248046875,0-0.78369140625-0.16845703125t-0.56396484375-0.57861328125l-0.205078125-0.4248046875q-0.17578125-0.3369140625-0.17578125-0.75439453125t-0.0732421875-0.76904296875z M85.683740234375,100.3662109375l0-0.2783203125q0-0.6884765625,0.34423828125-1.23046875t1.03271484375-0.5419921875q0.087890625,0,0.16845703125,0.0146484375t0.16845703125,0.0146484375q0.17578125,0.029296875,0.46142578125,0.13916015625t0.28564453125,0.34423828125l0,0.029296875q-0.05859375,0.1171875-0.0732421875,0.24169921875t-0.0732421875,0.21240234375l0.029296875-0.029296875q-0.17578125,0.4541015625-0.28564453125,0.732421875t-0.24169921875,0.44677734375t-0.32958984375,0.24169921875t-0.56396484375,0.0732421875q-0.05859375,0-0.205078125-0.0146484375t-0.31494140625-0.05859375t-0.28564453125-0.1171875t-0.1171875-0.2197265625z M90.5421875,100.234375q0-0.205078125,0.439453125-0.3515625t0.99609375-0.24169921875t1.07666015625-0.13916015625t0.71044921875-0.0732421875q0-0.3955078125,0.029296875-0.79833984375t0.1611328125-0.7177734375t0.41748046875-0.50537109375t0.79833984375-0.1904296875q0.4248046875,0,0.64453125,0.1025390625t0.46875,0.4248046875q0.05859375,0.17578125,0.05859375,0.3369140625l0,0.49072265625t-0.029296875,0.50537109375q0.5419921875-0.05859375,1.07666015625-0.13916015625t1.07666015625-0.08056640625q0.3955078125,0,0.5419921875,0.0146484375t0.29296875,0.3515625q0.1171875,0.3369140625-0.28564453125,0.5126953125t-0.966796875,0.263671875t-1.12060546875,0.1318359375t-0.673828125,0.0439453125q-0.17578125,2.51953125-0.35888671875,4.9951171875t-0.18310546875,5.0244140625q0,1.142578125,0.0732421875,2.3583984375t0.41015625,2.2998046875q0.087890625,0.3369140625,0.29296875,0.6298828125t0.205078125,0.6298828125q0,0.205078125-0.1611328125,0.322265625t-0.38818359375,0.19775390625t-0.4541015625,0.09521484375t-0.37353515625,0.0146484375q-0.9228515625,0-1.40625-0.6884765625t-0.69580078125-1.64794921875t-0.22705078125-1.97021484375t-0.0146484375-1.640625q0-1.2890625,0.05126953125-2.63671875t0.12451171875-2.666015625t0.205078125-2.578125t0.3076171875-2.34375q-0.5126953125,0.05859375-1.00341796875,0.1318359375t-1.00341796875,0.0732421875q-0.1171875,0-0.31494140625-0.0146484375t-0.37353515625-0.0732421875t-0.30029296875-0.1611328125t-0.12451171875-0.29296875z M101.74340820312,109.5361328125q0-0.99609375,0.27099609375-1.9189453125t0.81298828125-1.64794921875t1.35498046875-1.1572265625t1.88232421875-0.43212890625q0.6591796875,0,1.45751953125,0.19775390625t1.50146484375,0.5859375t1.171875,0.98876953125t0.46875,1.376953125q0,0.3662109375-0.12451171875,0.556640625t-0.50537109375,0.1904296875l-0.1611328125-0.029296875q0.4248046875,1.142578125,0.732421875,2.34375t0.6005859375,2.40234375q0.1171875,0.234375,0.17578125,0.41748046875t0.05859375,0.35888671875q0,0.234375-0.1318359375,0.38818359375t-0.34423828125,0.22705078125t-0.439453125,0.1025390625t-0.40283203125,0.029296875q-0.6298828125,0-0.94482421875-0.2197265625t-0.4541015625-0.6005859375t-0.16845703125-0.85693359375t-0.1171875-0.95947265625q-0.17578125,0.5712890625-0.46142578125,1.11328125t-0.673828125,0.97412109375t-0.91552734375,0.6884765625t-1.1865234375,0.25634765625q-0.966796875,0-1.6259765625-0.556640625t-1.06201171875-1.36962890625t-0.5859375-1.73583984375t-0.18310546875-1.7138671875z M103.82348632812,109.3310546875q0,0.5419921875,0.0732421875,1.142578125t0.24169921875,1.1865234375t0.43212890625,1.10595703125t0.6591796875,0.91552734375q0.7177734375-0.7763671875,1.06201171875-1.8896484375t0.615234375-2.14599609375t0.615234375-1.7724609375t1.06201171875-0.73974609375q0.4541015625,0,0.76171875,0.1611328125q-0.146484375-0.3662109375-0.4833984375-0.71044921875t-0.75439453125-0.6298828125t-0.8642578125-0.46875t-0.84228515625-0.18310546875q-0.1171875,0-0.27099609375,0.03662109375t-0.24169921875,0.00732421875q-0.6005859375,0.17578125-0.98876953125,0.60791015625t-0.6298828125,1.01806640625t-0.34423828125,1.201171875t-0.1025390625,1.1572265625z M114.43876953125,114.736328125q0-0.4248046875,0.03662109375-0.8935546875t0.06591796875-0.87890625l0.087890625-2.197265625q0.146484375-2.63671875,0.35888671875-5.185546875t0.35888671875-5.15625q0.087890625-1.435546875,0.1318359375-2.81982421875t0.1318359375-2.81982421875q-0.05859375-0.1171875-0.05859375-0.1611328125q0-0.205078125,0.15380859375-0.322265625t0.35888671875-0.19775390625t0.43212890625-0.10986328125t0.34423828125-0.029296875l0.3369140625,0q0.4541015625,0.05859375,0.6591796875,0.28564453125t0.263671875,0.5419921875t0.029296875,0.673828125t-0.029296875,0.66650390625q0,2.1240234375-0.1025390625,4.32861328125t-0.234375,4.423828125t-0.24169921875,4.4384765625t-0.10986328125,4.38720703125l0,1.025390625q0,0.6884765625-0.38818359375,0.908203125t-1.07666015625,0.2197265625q-0.6005859375,0-1.0546875-0.263671875t-0.4541015625-0.8642578125z M126.90224609375,94.32373046875q-0.03662109375-0.44677734375,0.05859375-0.7763671875t0.380859375-0.5419921875t0.91552734375-0.21240234375l2.3583984375,0q0.4833984375,0,1.26708984375,0.05126953125t1.6845703125,0.15380859375t1.79443359375,0.31494140625t1.63330078125,0.52734375t1.201171875,0.7763671875t0.46142578125,1.09130859375q0,0.8935546875-0.52001953125,1.67724609375t-1.3037109375,1.41357421875t-1.6552734375,1.12060546875t-1.56005859375,0.88623046875q2.724609375,0.6005859375,4.2626953125,2.490234375t1.5380859375,4.716796875q0,1.494140625-0.5712890625,2.95166015625t-1.56005859375,2.62939453125t-2.34375,1.8896484375t-2.90771484375,0.7177734375q-0.205078125,0-0.46142578125-0.0439453125t-0.46875-0.13916015625t-0.3662109375-0.27099609375t-0.15380859375-0.4541015625q0-1.2890625,1.3916015625-1.2890625q0.234375,0,0.54931640625,0.06591796875t0.49072265625,0.27099609375q0.8056640625-0.3369140625,1.47216796875-1.0693359375t1.1279296875-1.63330078125t0.7177734375-1.8896484375t0.25634765625-1.79443359375q0-0.966796875-0.28564453125-1.97021484375t-0.82763671875-1.8603515625t-1.3330078125-1.44287109375t-1.81640625-0.732421875q-0.263671875-0.029296875-0.57861328125-0.0439453125l-0.6298828125-0.029296875t-0.615234375-0.087890625t-0.52001953125-0.234375q0.1171875,2.431640625,0.30029296875,4.8486328125t0.49072265625,4.8486328125q0.1171875,0.1171875,0.1611328125,0.34423828125t0.0732421875,0.4833984375t0.029296875,0.49072265625l0,0.3955078125q0,0.263671875-0.17578125,0.43212890625t-0.41748046875,0.27099609375t-0.5126953125,0.1318359375t-0.47607421875,0.029296875q-0.6591796875,0-1.0107421875-0.17578125t-0.498046875-0.5126953125t-0.1904296875-0.76904296875t-0.0732421875-0.94482421875q-0.3955078125-4.0869140625-0.5712890625-8.0859375t-0.17578125-8.0859375q0-0.4833984375-0.03662109375-0.93017578125z M129.6048828125,93.701171875q0,1.8017578125,0.1171875,3.61083984375t0.205078125,3.61083984375q0.6591796875-0.3955078125,1.728515625-0.93017578125t2.07275390625-1.17919921875t1.72119140625-1.4208984375t0.7177734375-1.6845703125q0-0.7177734375-0.849609375-1.09130859375t-1.9775390625-0.556640625t-2.20458984375-0.22705078125t-1.53076171875-0.1318359375z M142.40278320313,109.5361328125q0-0.99609375,0.27099609375-1.9189453125t0.81298828125-1.64794921875t1.35498046875-1.1572265625t1.88232421875-0.43212890625q0.6591796875,0,1.45751953125,0.19775390625t1.50146484375,0.5859375t1.171875,0.98876953125t0.46875,1.376953125q0,0.3662109375-0.12451171875,0.556640625t-0.50537109375,0.1904296875l-0.1611328125-0.029296875q0.4248046875,1.142578125,0.732421875,2.34375t0.6005859375,2.40234375q0.1171875,0.234375,0.17578125,0.41748046875t0.05859375,0.35888671875q0,0.234375-0.1318359375,0.38818359375t-0.34423828125,0.22705078125t-0.439453125,0.1025390625t-0.40283203125,0.029296875q-0.6298828125,0-0.94482421875-0.2197265625t-0.4541015625-0.6005859375t-0.16845703125-0.85693359375t-0.1171875-0.95947265625q-0.17578125,0.5712890625-0.46142578125,1.11328125t-0.673828125,0.97412109375t-0.91552734375,0.6884765625t-1.1865234375,0.25634765625q-0.966796875,0-1.6259765625-0.556640625t-1.06201171875-1.36962890625t-0.5859375-1.73583984375t-0.18310546875-1.7138671875z M144.48286132813,109.3310546875q0,0.5419921875,0.0732421875,1.142578125t0.24169921875,1.1865234375t0.43212890625,1.10595703125t0.6591796875,0.91552734375q0.7177734375-0.7763671875,1.06201171875-1.8896484375t0.615234375-2.14599609375t0.615234375-1.7724609375t1.06201171875-0.73974609375q0.4541015625,0,0.76171875,0.1611328125q-0.146484375-0.3662109375-0.4833984375-0.71044921875t-0.75439453125-0.6298828125t-0.8642578125-0.46875t-0.84228515625-0.18310546875q-0.1171875,0-0.27099609375,0.03662109375t-0.24169921875,0.00732421875q-0.6005859375,0.17578125-0.98876953125,0.60791015625t-0.6298828125,1.01806640625t-0.34423828125,1.201171875t-0.1025390625,1.1572265625z M155.09814453125,105.0390625q0-0.29296875,0.380859375-0.37353515625t0.5859375-0.08056640625q1.2890625,0,2.5341796875-0.2197265625t2.5048828125-0.2197265625q0.1171875,0,0.38818359375,0.0146484375t0.5126953125,0.05859375t0.43212890625,0.146484375t0.1904296875,0.3076171875q0,0.3662109375-0.17578125,1.0546875t-0.47607421875,1.54541015625t-0.6591796875,1.81640625t-0.7177734375,1.8310546875t-0.673828125,1.57470703125t-0.50537109375,1.0986328125q0.4833984375,0.087890625,1.1865234375,0.146484375t1.3330078125,0.1171875t1.0546875,0.19775390625t0.3955078125,0.34423828125q-0.05859375,0.3369140625-0.6005859375,0.52734375q-0.52734375,0.1904296875-1.318359375,0.263671875q-0.4833984375,0.0439453125-1.025390625,0.0439453125q-0.322265625,0-0.64453125-0.0146484375q-0.87890625-0.0439453125-1.64794921875-0.146484375t-1.28173828125-0.28564453125t-0.5126953125-0.38818359375q0-0.087890625,0.25634765625-0.7177734375t0.6298828125-1.53076171875t0.82763671875-1.962890625t0.87158203125-2.04345703125t0.732421875-1.7431640625t0.43212890625-1.0546875q-0.8642578125,0.05859375-1.75048828125,0.146484375t-1.75048828125,0.087890625q-0.1171875,0-0.37353515625-0.0146484375t-0.498046875-0.0732421875t-0.439453125-0.16845703125t-0.19775390625-0.28564453125z M166.41655273438,109.5361328125q0-0.99609375,0.27099609375-1.9189453125t0.81298828125-1.64794921875t1.35498046875-1.1572265625t1.88232421875-0.43212890625q0.6591796875,0,1.45751953125,0.19775390625t1.50146484375,0.5859375t1.171875,0.98876953125t0.46875,1.376953125q0,0.3662109375-0.12451171875,0.556640625t-0.50537109375,0.1904296875l-0.1611328125-0.029296875q0.4248046875,1.142578125,0.732421875,2.34375t0.6005859375,2.40234375q0.1171875,0.234375,0.17578125,0.41748046875t0.05859375,0.35888671875q0,0.234375-0.1318359375,0.38818359375t-0.34423828125,0.22705078125t-0.439453125,0.1025390625t-0.40283203125,0.029296875q-0.6298828125,0-0.94482421875-0.2197265625t-0.4541015625-0.6005859375t-0.16845703125-0.85693359375t-0.1171875-0.95947265625q-0.17578125,0.5712890625-0.46142578125,1.11328125t-0.673828125,0.97412109375t-0.91552734375,0.6884765625t-1.1865234375,0.25634765625q-0.966796875,0-1.6259765625-0.556640625t-1.06201171875-1.36962890625t-0.5859375-1.73583984375t-0.18310546875-1.7138671875z M168.49663085938,109.3310546875q0,0.5419921875,0.0732421875,1.142578125t0.24169921875,1.1865234375t0.43212890625,1.10595703125t0.6591796875,0.91552734375q0.7177734375-0.7763671875,1.06201171875-1.8896484375t0.615234375-2.14599609375t0.615234375-1.7724609375t1.06201171875-0.73974609375q0.4541015625,0,0.76171875,0.1611328125q-0.146484375-0.3662109375-0.4833984375-0.71044921875t-0.75439453125-0.6298828125t-0.8642578125-0.46875t-0.84228515625-0.18310546875q-0.1171875,0-0.27099609375,0.03662109375t-0.24169921875,0.00732421875q-0.6005859375,0.17578125-0.98876953125,0.60791015625t-0.6298828125,1.01806640625t-0.34423828125,1.201171875t-0.1025390625,1.1572265625z M179.1119140625,105.4345703125q0-0.6005859375,0.21240234375-1.0107421875t0.90087890625-0.41015625q0.263671875,0,0.6591796875,0.08056640625t0.4541015625,0.40283203125q0.146484375,0.8642578125,0.1611328125,1.875t0.1025390625,1.904296875q0.3369140625-0.6591796875,0.8642578125-1.4208984375t1.201171875-1.40625t1.46484375-1.0693359375t1.611328125-0.4248046875q0.05859375,0,0.2197265625,0.0439453125t0.30029296875,0.12451171875t0.16845703125,0.18310546875t-0.1611328125,0.1904296875q-0.05859375,0.17578125-0.2490234375,0.21240234375t-0.3369140625,0.03662109375q-0.087890625,0-0.2783203125-0.0732421875q-1.083984375,0.5712890625-1.845703125,1.552734375t-1.2451171875,2.17529296875t-0.703125,2.51953125t-0.2197265625,2.58544921875q0,0.6298828125-0.28564453125,0.76171875t-0.91552734375,0.1318359375q-0.3369140625,0-0.71044921875-0.0732421875t-0.52001953125-0.46875q-0.263671875-0.8349609375-0.43212890625-1.9189453125t-0.25634765625-2.23388671875t-0.12451171875-2.26318359375t-0.03662109375-2.0068359375z"/><path fill="#" d=""/></svg>
